<?xml version="1.0" standalone="no"?>
<!DOCTYPE svg PUBLIC "-//W3C//DTD SVG 20010904//EN"
 "http://www.w3.org/TR/2001/REC-SVG-20010904/DTD/svg10.dtd">
<svg version="1.0" xmlns="http://www.w3.org/2000/svg"
 width="772.000000pt" height="488.000000pt" viewBox="0 0 772.000000 488.000000"
 preserveAspectRatio="xMidYMid meet">

<g transform="translate(0.000000,488.000000) scale(0.100000,-0.100000)"
fill="#000000" stroke="none">
<path d="M325 4782 c-117 -40 -209 -121 -262 -230 l-28 -57 0 -1795 0 -1795
32 -68 c43 -89 119 -169 202 -210 l66 -32 578 -3 578 -2 30 29 c37 38 39 88 5
128 l-24 28 -564 5 -565 5 -48 30 c-34 21 -56 44 -71 75 l-22 45 -4 1762 -3
1761 30 43 c17 24 50 57 74 74 l43 30 1360 3 c874 1 1373 -1 1396 -8 45 -12
106 -61 130 -103 15 -29 17 -94 22 -740 l5 -709 28 -24 c39 -33 99 -33 133 1
l24 24 -2 728 -3 728 -27 58 c-35 73 -117 156 -199 199 l-64 33 -1400 2
c-1308 2 -1403 1 -1450 -15z"/>
<path d="M1196 4235 c-143 -37 -279 -147 -341 -276 -89 -189 -51 -431 91 -579
l34 -36 -65 -43 c-182 -119 -307 -288 -356 -478 -21 -85 -27 -204 -11 -243 5
-14 22 -36 37 -50 l27 -25 697 -3 697 -2 35 23 c48 32 59 60 59 152 0 239
-150 495 -368 630 l-60 37 51 66 c57 75 79 122 102 207 64 249 -84 519 -333
606 -76 27 -218 33 -296 14z m243 -236 c143 -61 208 -247 138 -392 -106 -216
-416 -208 -516 13 -28 61 -28 169 -1 228 29 63 54 95 100 127 83 58 182 66
279 24z m24 -824 c134 -35 276 -143 340 -259 26 -47 77 -177 77 -197 0 -5
-217 -9 -560 -9 -308 0 -560 2 -560 3 0 16 45 129 70 175 76 143 220 254 379
291 59 14 193 12 254 -4z"/>
<path d="M4931 4209 c-139 -24 -260 -85 -367 -183 -198 -180 -284 -430 -271
-786 10 -296 85 -491 252 -657 68 -67 99 -89 176 -126 124 -60 210 -78 368
-78 347 1 584 161 685 463 31 90 32 114 9 127 -10 5 -93 12 -185 16 l-166 8
-36 -78 c-48 -104 -95 -148 -187 -176 -180 -55 -362 17 -439 175 -47 95 -63
188 -63 371 0 181 17 283 62 380 69 150 195 224 358 212 136 -10 215 -73 273
-217 20 -51 38 -80 47 -80 9 0 88 7 177 16 107 10 166 20 176 30 12 12 11 23
-9 86 -64 200 -183 349 -341 426 -47 23 -112 49 -145 58 -72 19 -298 27 -374
13z"/>
<path d="M5860 4175 c-16 -20 -40 55 279 -870 303 -878 302 -875 318 -890 19
-20 127 -28 300 -23 121 4 157 8 169 20 9 9 74 184 145 389 359 1033 459 1328
459 1347 0 40 -20 43 -204 40 -161 -3 -177 -5 -196 -24 -13 -13 -48 -109 -96
-260 -199 -635 -288 -927 -313 -1023 l-28 -105 -21 85 c-11 46 -96 325 -188
619 -91 294 -175 563 -185 597 -35 110 -28 108 -241 111 -161 3 -186 1 -198
-13z"/>
<path d="M2179 4081 c-21 -22 -29 -39 -29 -66 0 -27 8 -44 29 -66 l29 -29 372
0 372 0 29 29 c21 22 29 39 29 66 0 27 -8 44 -29 66 l-29 29 -372 0 -372 0
-29 -29z"/>
<path d="M2220 3693 c-28 -10 -59 -45 -65 -74 -7 -32 16 -83 44 -99 13 -6 154
-10 385 -10 364 0 365 0 391 23 15 13 28 37 31 58 5 31 1 42 -24 70 l-30 34
-359 2 c-197 1 -365 -1 -373 -4z"/>
<path d="M2340 3279 c-56 -22 -77 -93 -44 -144 9 -14 32 -29 53 -35 20 -5 151
-10 294 -10 204 0 265 3 293 15 62 26 77 110 27 157 -24 23 -26 23 -311 25
-174 1 -297 -2 -312 -8z"/>
<path d="M3522 2771 c-15 -15 -117 -152 -226 -302 -110 -151 -297 -404 -415
-564 -118 -159 -225 -308 -238 -330 -36 -63 -46 -108 -32 -157 23 -87 94 -124
334 -178 115 -26 145 -39 174 -76 45 -58 38 -81 -243 -806 -53 -136 -96 -254
-96 -261 0 -30 36 -60 70 -60 46 0 65 22 334 393 298 409 437 596 537 722 108
135 133 189 127 274 -3 47 -9 70 -24 84 -13 13 -89 40 -209 74 -180 51 -191
56 -227 95 -24 25 -38 50 -38 66 0 14 33 128 74 253 173 530 226 702 226 735
0 68 -80 91 -128 38z"/>
<path d="M2690 2667 c-134 -38 -230 -167 -230 -308 l0 -47 -212 -4 c-193 -3
-217 -5 -260 -25 -63 -29 -134 -96 -166 -158 l-27 -50 0 -620 c0 -588 1 -623
19 -670 26 -65 103 -147 169 -176 51 -24 56 -24 454 -27 l401 -3 11 33 c5 18
29 106 52 196 57 221 56 222 -146 267 -148 32 -232 71 -280 130 -74 90 -93
197 -55 316 35 111 -2 65 657 813 150 170 273 315 273 323 0 10 -33 13 -152
13 -84 0 -223 2 -308 5 -110 4 -168 1 -200 -8z"/>
<path d="M3644 2303 c-6 -4 -38 -98 -72 -208 -70 -228 -86 -289 -80 -305 2 -6
98 -42 213 -80 116 -39 224 -79 242 -90 48 -29 75 -91 81 -181 8 -134 12 -127
-371 -585 -427 -511 -467 -559 -467 -567 0 -7 358 213 420 258 l45 33 220 4
221 3 66 33 c85 42 152 114 173 187 13 45 15 139 13 661 l-3 609 -28 57 c-32
65 -90 121 -156 151 -42 20 -67 22 -276 25 -126 1 -235 -1 -241 -5z"/>
<path d="M579 2171 c-31 -32 -38 -71 -18 -114 23 -51 28 -51 506 -51 l445 -1
29 33 c40 44 40 93 0 133 l-29 29 -452 0 -452 0 -29 -29z"/>
<path d="M5000 1826 c-26 -6 -62 -22 -82 -34 -39 -24 -97 -85 -100 -105 -1 -7
-4 17 -7 53 l-6 65 -120 0 -120 0 -6 -60 c-4 -33 -7 -265 -8 -515 -1 -343 2
-459 11 -468 8 -8 51 -12 130 -12 109 0 118 2 128 21 8 15 10 99 4 293 -4 150
-4 298 0 329 24 188 235 264 340 123 20 -26 21 -44 26 -384 3 -196 9 -363 13
-369 12 -20 240 -18 256 1 9 11 11 115 9 408 -3 381 -4 395 -26 449 -45 114
-106 172 -212 203 -63 19 -166 20 -230 2z"/>
<path d="M5940 1822 c-80 -21 -147 -59 -190 -109 -60 -67 -105 -197 -82 -231
6 -9 47 -16 127 -20 100 -6 118 -5 122 8 26 88 78 132 163 138 113 8 170 -31
178 -122 8 -96 3 -102 -80 -110 -169 -16 -352 -47 -396 -66 -99 -44 -152 -130
-160 -260 -5 -100 21 -171 84 -230 74 -68 120 -84 254 -84 104 -1 120 2 170
25 31 14 72 41 93 58 36 32 36 32 41 9 3 -13 7 -34 8 -48 l3 -25 125 0 125 0
0 420 0 420 -24 53 c-42 93 -138 157 -275 183 -75 14 -214 10 -286 -9z m311
-604 c-1 -5 -1 -42 -1 -83 0 -69 -2 -77 -30 -109 -32 -36 -89 -60 -170 -71
-58 -8 -123 16 -139 51 -25 56 -4 141 41 165 22 12 262 59 286 56 7 -1 13 -5
13 -9z"/>
<path d="M7155 1831 c-56 -14 -104 -43 -139 -81 l-35 -39 -3 47 -3 47 -125 0
-125 0 0 -725 0 -725 129 -3 c97 -2 132 1 138 10 5 7 6 126 3 263 -6 242 -5
249 12 225 58 -80 142 -120 257 -120 285 0 449 229 433 605 -10 243 -95 395
-263 472 -47 21 -75 27 -153 29 -53 2 -109 0 -126 -5z m146 -244 c76 -51 112
-148 112 -302 1 -161 -42 -269 -119 -301 -77 -32 -187 -10 -241 48 -93 99 -78
438 23 530 60 53 165 65 225 25z"/>
<path d="M600 1767 c-55 -28 -65 -100 -21 -149 l29 -33 390 0 390 0 26 24 c49
46 42 127 -15 156 -38 20 -760 22 -799 2z"/>
<path d="M579 1331 c-21 -22 -29 -39 -29 -66 0 -27 8 -44 29 -66 l29 -29 376
0 c259 0 383 4 400 11 32 15 59 70 50 104 -3 14 -20 36 -36 50 l-30 25 -380 0
-380 0 -29 -29z"/>
</g>
</svg>
